<?xml version="1.0" encoding="iso-8859-1"?>
<!-- Generator: Adobe Illustrator 19.0.0, SVG Export Plug-In . SVG Version: 6.00 Build 0)  -->
<svg version="1.1" id="Layer_1" xmlns="http://www.w3.org/2000/svg" xmlns:xlink="http://www.w3.org/1999/xlink" x="0px" y="0px"
	 viewBox="0 0 512 512" style="enable-background:new 0 0 512 512;" xml:space="preserve">
<g>
	<g>
		<g>
			<path d="M482.358,229.671h-63.223v-3.525c0-36.462-29.664-66.126-66.125-66.126c-36.461,0-66.125,29.664-66.125,66.126v3.525
				h-31.563c12.826-21.276,19.54-45.428,19.54-70.687c0-75.781-61.651-137.434-137.432-137.434S0,83.202,0,158.983
				s61.651,137.434,137.432,137.434c19.577,0,38.896-4.178,56.589-12.167v109.772l-10.426-8.229
				c-5.027-3.966-12.61-3.968-17.641,0.001c-2.957,2.335-4.652,5.744-4.652,9.353v28.005H72.758
				c-19.316,0-35.032-15.715-35.032-35.033v-97.012c0-4.466-3.62-8.084-8.084-8.084c-4.465,0-8.084,3.618-8.084,8.084v97.013
				c0,28.232,22.969,51.201,51.2,51.201h88.544v28.006c0,3.609,1.695,7.018,4.652,9.353c0.001,0,0.002,0.001,0.003,0.002
				c5.026,3.964,12.608,3.966,17.637-0.001l10.428-8.229v3.127c0,16.344,13.297,29.642,29.642,29.642h258.695
				c16.345,0,29.642-13.298,29.642-29.642V259.313C512,242.969,498.703,229.671,482.358,229.671z M411.051,303.88
				c4.465,0,8.084-3.619,8.084-8.084V283.01c4.233,2.685,7.048,7.414,7.048,12.786c0,8.344-6.789,15.133-15.133,15.133
				s-15.133-6.789-15.133-15.133c0-5.372,2.814-10.101,7.048-12.786v12.786C402.967,300.261,406.586,303.88,411.051,303.88z
				 M303.054,226.146c0-27.546,22.411-49.957,49.956-49.957s49.956,22.411,49.956,49.957v3.525h-99.912V226.146z M294.97,303.88
				c4.465,0,8.084-3.619,8.084-8.084V283.01c4.233,2.685,7.048,7.414,7.048,12.786c0,8.344-6.789,15.133-15.133,15.133
				s-15.133-6.789-15.133-15.133c0-5.372,2.815-10.101,7.048-12.786v12.786C286.886,300.261,290.506,303.88,294.97,303.88z
				 M137.432,280.249c-66.865,0-121.263-54.4-121.263-121.265S70.567,37.718,137.432,37.718s121.263,54.4,121.263,121.265
				c0,25.654-7.845,50.007-22.73,70.686h-12.302c-16.345,0-29.642,13.298-29.642,29.642v6.946
				C176.666,275.425,157.201,280.249,137.432,280.249z M197.179,445.362c-0.052,0.04-0.103,0.081-0.155,0.122l-19.555,15.432
				v-59.359l19.582,15.454c0.033,0.026,0.067,0.053,0.1,0.079l17.927,14.146L197.179,445.362z M495.832,471.579
				c0,7.43-6.044,13.474-13.474,13.474H223.663c-7.43,0-13.474-6.045-13.474-13.474v-15.888l15.324-12.094
				c3.96-3.125,6.232-7.63,6.233-12.36c0-4.73-2.271-9.235-6.233-12.362l-15.324-12.094V271.165c0.001-0.099,0.001-0.198,0-0.296
				v-11.556c0-7.43,6.044-13.474,13.474-13.474h16.274c0.055,0,0.11,0,0.164,0h46.784v19.714
				c-13.353,3.573-23.217,15.778-23.217,30.242c0,17.26,14.042,31.302,31.301,31.302s31.301-14.042,31.301-31.302
				c0-14.464-9.863-26.669-23.217-30.242v-19.714h99.912v19.714c-13.353,3.573-23.217,15.778-23.217,30.242
				c0,17.26,14.042,31.302,31.301,31.302c17.259,0,31.301-14.042,31.301-31.302c0-14.464-9.863-26.669-23.217-30.242v-19.714h63.224
				c7.43,0,13.474,6.045,13.474,13.474V471.579z"/>
			<path d="M286.486,71.559l41.92,33.082c5.028,3.967,12.611,3.969,17.641-0.001c2.957-2.335,4.652-5.744,4.652-9.353V67.283h88.543
				c19.316,0,35.032,15.715,35.032,35.033v97.013c0,4.466,3.62,8.084,8.084,8.084c4.465,0,8.084-3.618,8.084-8.084v-97.014
				c0-28.232-22.969-51.201-51.2-51.201h-88.544V23.107c0-3.609-1.695-7.018-4.652-9.353c-0.001,0-0.002-0.001-0.003-0.002
				c-5.026-3.964-12.608-3.966-17.637,0.001l-41.92,33.083c-3.961,3.126-6.234,7.631-6.234,12.361
				C280.253,63.926,282.524,68.432,286.486,71.559z M334.53,29.519v59.359l-37.609-29.68L334.53,29.519z"/>
			<path d="M160.915,93.376V72.751c0-4.466-3.62-8.084-8.084-8.084s-8.084,3.619-8.084,8.084v16.935
				c-4.807-0.503-9.821-0.503-14.628,0V72.751c0-4.466-3.62-8.084-8.084-8.084c-4.465,0-8.084,3.619-8.084,8.084v20.625
				c-26.902,9.658-46.195,35.422-46.195,65.607s19.293,55.949,46.195,65.607v20.625c0,4.466,3.62,8.084,8.084,8.084
				c4.465,0,8.084-3.618,8.084-8.084v-16.935c4.807,0.503,9.821,0.503,14.628,0v16.935c0,4.466,3.62,8.084,8.084,8.084
				s8.084-3.618,8.084-8.084v-20.625c26.902-9.658,46.195-35.422,46.195-65.607S187.817,103.034,160.915,93.376z M113.949,207.062
				c-17.766-8.714-30.027-26.99-30.027-48.077c0-21.087,12.261-39.364,30.027-48.077V207.062z M144.746,211.996
				c-4.783,0.656-9.847,0.656-14.628,0V105.971c4.783-0.656,9.847-0.656,14.628,0V211.996z M160.915,207.062v-96.156
				c17.766,8.714,30.027,26.99,30.027,48.077S178.68,198.348,160.915,207.062z"/>
		</g>
	</g>
</g>
<g>
</g>
<g>
</g>
<g>
</g>
<g>
</g>
<g>
</g>
<g>
</g>
<g>
</g>
<g>
</g>
<g>
</g>
<g>
</g>
<g>
</g>
<g>
</g>
<g>
</g>
<g>
</g>
<g>
</g>
</svg>
