<?xml version="1.0" encoding="iso-8859-1"?>
<!-- Generator: Adobe Illustrator 18.0.0, SVG Export Plug-In . SVG Version: 6.00 Build 0)  -->
<!DOCTYPE svg PUBLIC "-//W3C//DTD SVG 1.1//EN" "http://www.w3.org/Graphics/SVG/1.1/DTD/svg11.dtd">
<svg version="1.1" id="Capa_1" xmlns="http://www.w3.org/2000/svg" xmlns:xlink="http://www.w3.org/1999/xlink" x="0px" y="0px"
	 viewBox="0 0 185.697 185.697" style="enable-background:new 0 0 185.697 185.697;" xml:space="preserve">
<g>
	<path d="M170.525,22.238c-9.5-5.732-21.031-6.067-30.848-0.894L41.819,72.911c-7.42,3.91-12.03,11.55-12.03,19.938
		s4.61,16.028,12.03,19.938l97.858,51.566c4.632,2.44,9.646,3.655,14.647,3.655c5.599,0,11.183-1.522,16.2-4.549
		c9.5-5.732,15.172-15.778,15.172-26.874V49.112C185.697,38.017,180.025,27.971,170.525,22.238z M167.697,136.585
		c0,4.803-2.358,8.981-6.471,11.462c-4.112,2.482-8.908,2.621-13.157,0.381L50.211,96.863c-2.186-1.152-2.422-3.191-2.422-4.014
		s0.236-2.862,2.422-4.014l97.858-51.566c2.007-1.058,4.137-1.585,6.259-1.585c2.369,0,4.729,0.657,6.898,1.966
		c4.113,2.481,6.471,6.659,6.471,11.462V136.585z"/>
	<path d="M9,25.482c-4.971,0-9,4.029-9,9v116.733c0,4.971,4.029,9,9,9s9-4.029,9-9V34.482C18,29.511,13.971,25.482,9,25.482z"/>
</g>
<g>
</g>
<g>
</g>
<g>
</g>
<g>
</g>
<g>
</g>
<g>
</g>
<g>
</g>
<g>
</g>
<g>
</g>
<g>
</g>
<g>
</g>
<g>
</g>
<g>
</g>
<g>
</g>
<g>
</g>
</svg>
