<?xml version="1.0" encoding="iso-8859-1"?>
<!-- Generator: Adobe Illustrator 19.0.0, SVG Export Plug-In . SVG Version: 6.00 Build 0)  -->
<svg version="1.1" id="Layer_1" xmlns="http://www.w3.org/2000/svg" xmlns:xlink="http://www.w3.org/1999/xlink" x="0px" y="0px"
	 viewBox="0 0 512.002 512.002" style="enable-background:new 0 0 512.002 512.002;" xml:space="preserve">
<g>
	<g>
		<path d="M480.262,375.468l29.867-37.333c2.057-2.569,2.449-6.076,1.033-9.037c-1.425-2.944-4.412-4.83-7.697-4.83h-59.733v-25.6
			c0-4.719-3.814-8.533-8.533-8.533h-11.093c3.448-3.191,6.75-6.536,9.677-10.189c5.888-7.339,10.633-15.488,14.131-24.226
			l20.369-50.918h-50.15c-4.71,0-8.533-3.814-8.533-8.533s3.823-8.533,8.533-8.533h56.977l6.827-17.067h-46.737
			c-4.71,0-8.533-3.814-8.533-8.533s3.823-8.533,8.533-8.533h53.564l6.827-17.067h-51.857c-4.71,0-8.533-3.814-8.533-8.533
			c0-4.719,3.823-8.533,8.533-8.533h58.684l8.977-22.434c1.05-2.628,0.725-5.606-0.862-7.953c-1.587-2.338-4.233-3.746-7.066-3.746
			h-128c-3.055,0-5.888,1.638-7.407,4.301l-26.3,46.012c-22.724-20.582-52.753-33.246-85.76-33.246
			c-33.007,0-63.036,12.663-85.76,33.246l-26.3-46.012c-1.51-2.662-4.343-4.301-7.407-4.301h-128c-2.833,0-5.47,1.408-7.066,3.746
			c-1.579,2.347-1.911,5.325-0.853,7.953l8.969,22.434h58.684c4.719,0,8.533,3.814,8.533,8.533c0,4.719-3.814,8.533-8.533,8.533
			H16.407l6.827,17.067h53.564c4.719,0,8.533,3.814,8.533,8.533s-3.814,8.533-8.533,8.533H30.06l6.827,17.067h56.977
			c4.719,0,8.533,3.814,8.533,8.533s-3.814,8.533-8.533,8.533h-50.15l20.369,50.918c3.499,8.738,8.252,16.887,14.131,24.218
			c2.935,3.652,6.238,7.006,9.685,10.197H76.798c-4.71,0-8.533,3.814-8.533,8.533v25.6H8.531c-3.285,0-6.263,1.886-7.689,4.83
			c-1.417,2.961-1.024,6.468,1.024,9.037l29.875,37.333L1.866,412.801c-2.048,2.569-2.44,6.076-1.024,9.037
			c1.425,2.944,4.403,4.83,7.689,4.83h93.867c4.719,0,8.533-3.814,8.533-8.533v-25.6h290.133v25.6c0,4.719,3.823,8.533,8.533,8.533
			h93.867c3.285,0,6.272-1.886,7.697-4.83c1.417-2.961,1.024-6.468-1.033-9.037L480.262,375.468z M145.61,219.598
			c0.162-1.587,0.452-3.14,0.674-4.71c0.265-1.929,0.512-3.866,0.879-5.751c0.384-1.971,0.905-3.908,1.391-5.854
			c0.367-1.425,0.691-2.867,1.109-4.267c0.631-2.15,1.391-4.25,2.15-6.357c0.418-1.135,0.802-2.278,1.254-3.396
			c0.896-2.236,1.903-4.429,2.953-6.605c0.435-0.913,0.853-1.835,1.323-2.739c1.178-2.287,2.458-4.523,3.797-6.733
			c0.435-0.708,0.853-1.434,1.297-2.133c1.476-2.313,3.046-4.557,4.693-6.767c0.41-0.546,0.802-1.092,1.22-1.63
			c1.749-2.253,3.601-4.446,5.538-6.588c20.318-22.417,49.553-36.599,82.108-36.599c32.563,0,61.798,14.182,82.108,36.599
			c1.937,2.142,3.789,4.335,5.547,6.588c0.41,0.538,0.811,1.084,1.212,1.63c1.647,2.21,3.226,4.454,4.693,6.767
			c0.452,0.7,0.87,1.425,1.306,2.133c1.34,2.21,2.62,4.446,3.797,6.733c0.461,0.905,0.879,1.826,1.323,2.739
			c1.041,2.176,2.048,4.369,2.953,6.605c0.444,1.118,0.836,2.261,1.246,3.396c0.768,2.108,1.519,4.207,2.159,6.357
			c0.418,1.399,0.742,2.842,1.101,4.267c0.495,1.946,1.007,3.883,1.399,5.854c0.367,1.886,0.606,3.823,0.879,5.751
			c0.222,1.57,0.512,3.123,0.666,4.71c0.35,3.558,0.546,7.159,0.546,10.803c0,2.756-0.111,5.504-0.307,8.226
			c-0.068,0.956-0.213,1.894-0.307,2.842c-0.171,1.766-0.341,3.524-0.606,5.265c-0.171,1.161-0.41,2.295-0.614,3.447
			c-0.273,1.51-0.538,3.029-0.87,4.523c-0.282,1.246-0.623,2.466-0.947,3.695c-0.358,1.374-0.708,2.756-1.118,4.113
			c-0.393,1.289-0.836,2.56-1.28,3.831c-0.435,1.271-0.87,2.543-1.348,3.797c-0.503,1.297-1.058,2.586-1.613,3.874
			c-0.512,1.186-1.024,2.372-1.579,3.541c-0.614,1.306-1.271,2.594-1.937,3.883c-0.58,1.109-1.178,2.21-1.792,3.311
			c-0.734,1.297-1.493,2.577-2.287,3.849c-0.316,0.512-0.657,1.024-0.99,1.536h-69.871l6.4-8.533h38.4
			c3.004,0,5.786-1.579,7.33-4.156c1.536-2.577,1.604-5.777,0.188-8.422l-20.796-38.622l20.796-38.622
			c1.417-2.645,1.348-5.845-0.188-8.422c-1.544-2.577-4.326-4.156-7.33-4.156h-38.417l-23.168-30.737
			c-1.613-2.142-4.139-3.396-6.81-3.396h-0.026c-2.688,0.009-5.214,1.271-6.818,3.43l-22.912,30.703h-38.383
			c-2.995,0-5.777,1.579-7.313,4.139c-1.545,2.569-1.63,5.76-0.222,8.405l20.582,38.656l-20.582,38.656
			c-1.408,2.645-1.323,5.837,0.222,8.405c1.536,2.56,4.318,4.139,7.313,4.139h38.4l6.4,8.533H162.66
			c-0.333-0.512-0.666-1.024-0.99-1.536c-0.785-1.271-1.553-2.551-2.278-3.849c-0.623-1.101-1.212-2.202-1.792-3.311
			c-0.674-1.289-1.323-2.577-1.946-3.883c-0.546-1.169-1.067-2.355-1.579-3.541c-0.555-1.289-1.101-2.577-1.604-3.874
			c-0.486-1.254-0.922-2.526-1.357-3.797c-0.435-1.271-0.879-2.543-1.271-3.831c-0.41-1.357-0.768-2.739-1.126-4.113
			c-0.316-1.229-0.657-2.449-0.939-3.695c-0.333-1.493-0.597-3.012-0.87-4.523c-0.213-1.152-0.452-2.287-0.623-3.447
			c-0.256-1.741-0.427-3.499-0.606-5.265c-0.094-0.947-0.23-1.886-0.299-2.842c-0.205-2.722-0.316-5.47-0.316-8.226
			C145.064,226.757,145.269,223.156,145.61,219.598z M93.864,409.601H26.289l23.04-28.8c2.492-3.115,2.492-7.552,0-10.667
			l-23.04-28.8h41.975v42.667c0,4.719,3.823,8.533,8.533,8.533h17.067V409.601z M102.398,375.468H85.331v-42.667v-25.6h29.952
			h42.735h0.017h91.563h12.8h91.571h0.017h42.726h29.952v25.6v42.667h-17.067H102.398z M418.131,409.601v-17.067h17.067
			c4.719,0,8.533-3.814,8.533-8.533v-42.667h41.975l-23.04,28.8c-2.492,3.115-2.492,7.552,0,10.667l23.04,28.8H418.131z"/>
	</g>
</g>
<g>
</g>
<g>
</g>
<g>
</g>
<g>
</g>
<g>
</g>
<g>
</g>
<g>
</g>
<g>
</g>
<g>
</g>
<g>
</g>
<g>
</g>
<g>
</g>
<g>
</g>
<g>
</g>
<g>
</g>
</svg>
